#N canvas 827 239 3980 565 12;
#X text 85 107 Note 1;
#X obj 85 171 loadbang;
#X obj 185 171 tgl 25 0 empty empty empty 17 7 0 10 #e4e4e4 #4d4d4d #373737 0 1;
#X msg 85 212 524;
#X obj 185 212 change;
#X obj 185 244 sel 1;
#X obj 185 280 bng 25 250 50 0 empty empty empty 17 7 0 10 #e4e4e4 #4d4d4d #373737;
#X obj 85 322 Voice;
#X text 405 107 Note 2;
#X text 405 136 C# = 554 hz;
#X obj 405 171 loadbang;
#X obj 505 171 tgl 25 0 empty empty empty 17 7 0 10 #e4e4e4 #4d4d4d #373737 0 1;
#X msg 405 212 554;
#X obj 505 212 change;
#X obj 505 244 sel 1;
#X obj 505 280 bng 25 250 50 0 empty empty empty 17 7 0 10 #e4e4e4 #4d4d4d #373737;
#X obj 405 322 Voice;
#X text 725 107 Note 3;
#X text 725 136 D = 588 hz;
#X obj 825 137 r mpr121_driver_ch2 @hv_param;
#X obj 725 171 loadbang;
#X obj 825 171 tgl 25 0 empty empty empty 17 7 0 10 #e4e4e4 #4d4d4d #373737 0 1;
#X msg 725 212 588;
#X obj 825 212 change;
#X obj 825 244 sel 1;
#X obj 825 280 bng 25 250 50 0 empty empty empty 17 7 0 10 #e4e4e4 #4d4d4d #373737;
#X obj 725 322 Voice;
#X text 1045 107 Note 4;
#X text 1045 136 D# = 622 hz;
#X obj 1045 171 loadbang;
#X obj 1145 171 tgl 25 0 empty empty empty 17 7 0 10 #e4e4e4 #4d4d4d #373737 0 1;
#X msg 1045 212 622;
#X obj 1145 212 change;
#X obj 1145 244 sel 1;
#X obj 1145 280 bng 25 250 50 0 empty empty empty 17 7 0 10 #e4e4e4 #4d4d4d #373737;
#X obj 1045 322 Voice;
#X text 1365 107 Note 5;
#X text 1365 136 E = 660 hz;
#X obj 1365 171 loadbang;
#X obj 1465 171 tgl 25 0 empty empty empty 17 7 0 10 #e4e4e4 #4d4d4d #373737 0 1;
#X msg 1365 212 660;
#X obj 1465 212 change;
#X obj 1465 244 sel 1;
#X obj 1465 280 bng 25 250 50 0 empty empty empty 17 7 0 10 #e4e4e4 #4d4d4d #373737;
#X obj 1365 322 Voice;
#X text 1685 107 Note 6;
#X text 1685 136 F = 698 hz;
#X obj 1785 137 r mpr121_driver_ch5 @hv_param;
#X obj 1685 171 loadbang;
#X obj 1785 171 tgl 25 0 empty empty empty 17 7 0 10 #e4e4e4 #4d4d4d #373737 0 1;
#X msg 1685 212 698;
#X obj 1785 212 change;
#X obj 1785 244 sel 1;
#X obj 1785 280 bng 25 250 50 0 empty empty empty 17 7 0 10 #e4e4e4 #4d4d4d #373737;
#X obj 1685 322 Voice;
#X obj 185 137 r mpr121_driver_ch0 @hv_param;
#X obj 505 137 r mpr121_driver_ch1 @hv_param;
#X obj 1145 137 r mpr121_driver_ch3 @hv_param;
#X obj 1465 137 r mpr121_driver_ch4 @hv_param;
#X obj 940 605 *~ 1;
#X obj 1186 632 r photoresistor @hv_param;
#X obj 1186 712 * 22000;
#X obj 1026 832 hv.filter~ lowpass 500 2;
#X obj 955 991 dac~;
#X obj 1186 672 - 0.22;
#X text 1186 591 Light Filter;
#X text 85 136 C5 = 524 hz;
#X obj 1186 752 + 200;
#X obj 1186 792 clip 200 8000;
#X connect 1 0 3 0;
#X connect 2 0 4 0;
#X connect 3 0 7 0;
#X connect 4 0 5 0;
#X connect 5 0 6 0;
#X connect 6 0 7 1;
#X connect 7 0 59 0;
#X connect 10 0 12 0;
#X connect 11 0 13 0;
#X connect 12 0 16 0;
#X connect 13 0 14 0;
#X connect 14 0 15 0;
#X connect 15 0 16 1;
#X connect 16 0 59 0;
#X connect 19 0 21 0;
#X connect 20 0 22 0;
#X connect 21 0 23 0;
#X connect 22 0 26 0;
#X connect 23 0 24 0;
#X connect 24 0 25 0;
#X connect 25 0 26 1;
#X connect 26 0 59 0;
#X connect 29 0 31 0;
#X connect 30 0 32 0;
#X connect 31 0 35 0;
#X connect 32 0 33 0;
#X connect 33 0 34 0;
#X connect 34 0 35 1;
#X connect 35 0 59 0;
#X connect 38 0 40 0;
#X connect 39 0 41 0;
#X connect 40 0 44 0;
#X connect 41 0 42 0;
#X connect 42 0 43 0;
#X connect 43 0 44 1;
#X connect 44 0 59 0;
#X connect 47 0 49 0;
#X connect 48 0 50 0;
#X connect 49 0 51 0;
#X connect 50 0 54 0;
#X connect 51 0 52 0;
#X connect 52 0 53 0;
#X connect 53 0 54 1;
#X connect 54 0 59 0;
#X connect 55 0 2 0;
#X connect 56 0 11 0;
#X connect 57 0 30 0;
#X connect 58 0 39 0;
#X connect 59 0 62 0;
#X connect 60 0 64 0;
#X connect 61 0 67 0;
#X connect 62 0 63 0;
#X connect 62 0 63 1;
#X connect 64 0 61 0;
#X connect 67 0 68 0;
#X connect 68 0 62 1;
