#N canvas 827 239 734 565 12;
#X obj 124 70 inlet;
#X obj 308 70 inlet;
#X obj 326 384 outlet~;
#X floatatom 124 104 5 0 0 0 - - - 12;
#X obj 308 218 line~;
#X obj 297 266 *~;
#X obj 308 104 bng 24 250 50 0 empty empty empty 17 7 0 10 #e4e4e4 #4d4d4d #373737;
#X obj 124 140 sig~;
#X obj 297 349 vcf~;
#X obj 473 266 loadbang;
#X obj 124 178 hv.osc~ square;
#X obj 200 70 loadbang;
#X msg 398 178 0 200;
#X obj 124 218 *~ 0.8;
#X msg 474 301 3;
#X obj 386 301 +~ 500;
#X msg 200 104 0.5;
#X msg 308 178 1 5;
#X obj 398 140 delay 200;
#X obj 386 266 *~ 4000;
#X connect 0 0 3 0;
#X connect 1 0 6 0;
#X connect 3 0 7 0;
#X connect 4 0 5 1;
#X connect 4 0 19 0;
#X connect 5 0 8 0;
#X connect 6 0 18 0;
#X connect 6 0 17 0;
#X connect 7 0 10 0;
#X connect 8 1 2 0;
#X connect 9 0 14 0;
#X connect 10 0 13 0;
#X connect 11 0 16 0;
#X connect 12 0 4 0;
#X connect 13 0 5 0;
#X connect 14 0 8 2 48.................S....n8++++D....Z++++OA...fa++++S....31+++eG....;
#X connect 15 0 8 1 32.................H....X6+++OB....19+++2A....;
#X connect 16 0 10 1;
#X connect 17 0 4 0;
#X connect 18 0 12 0;
#X connect 19 0 15 0;
